<svg xmlns="http://www.w3.org/2000/svg" viewBox="0 0 887.13 793.34"><path d="M581.05 747.4q0 11.88-4 20.19a39.46 39.46 0 0 1-24.84 21.37 55.88 55.88 0 0 1-16 2.38h-33.76a107.33 107.33 0 0 1-27.92-3.25 62.39 62.39 0 0 1-22.7-11.83q-10.74-8.58-21.47-23.36t-22.81-38L172.89 277.87q-18.42-33.84-37.09-70.95t-34.75-72.16h-1.19q1.17 42.75 1.69 87.3t.5 88.48v463.8a14.58 14.58 0 0 1-2.5 8c-1.67 2.57-4.49 4.56-8.45 5.93a91.85 91.85 0 0 1-15.69 3.55 170.23 170.23 0 0 1-24.72 1.48 170 170 0 0 1-24.72-1.48 82.88 82.88 0 0 1-15.35-3.57 15.64 15.64 0 0 1-8.12-5.93 14.5 14.5 0 0 1-2.5-8V65.28q0-23.75 13.48-33.85a48.13 48.13 0 0 1 29.44-10.09h50.27q17.76 0 29.73 3a62 62 0 0 1 21.45 9.8q9.5 6.84 18.39 19a255.93 255.93 0 0 1 18.66 30.57L361.83 421q16.67 30.89 32.17 60.28t29.87 57.9q14.37 28.5 28.44 56.13t27.88 55.51h.59q-1.2-46.92-1.48-97.71t-.3-97.74v-417a13.18 13.18 0 0 1 2.5-7.74q2.49-3.56 8.44-6.23a55.24 55.24 0 0 1 15.65-3.86 219.58 219.58 0 0 1 25.35-1.19 208.21 208.21 0 0 1 23.78 1.19q10 1.18 15.64 3.86t8.14 6.23a13.23 13.23 0 0 1 2.5 7.72z" fill="#404040"/><path d="M887.13 252.6q0 30.35-10.55 54.19a110.6 110.6 0 0 1-29.77 40.18q-19.21 16.32-46.24 25t-60 8.67a240.46 240.46 0 0 1-32.95-2.17 235.4 235.4 0 0 1-28-5.49 163.71 163.71 0 0 1-20.38-6.65c-5.3-2.21-8.77-4.05-10.4-5.49a14 14 0 0 1-3.62-4.77 29.56 29.56 0 0 1-1.87-6.25 62.28 62.28 0 0 1-1-9.11q-.3-5.49-.29-13 0-8.1.57-13.73a37.61 37.61 0 0 1 1.88-9.11 11.67 11.67 0 0 1 3-4.91 6.12 6.12 0 0 1 4-1.44q2.9 0 8.82 3.32a153.08 153.08 0 0 0 15.72 7.41 155 155 0 0 0 23.55 7.37q13.88 3.33 33.24 3.32a124.2 124.2 0 0 0 30.49-3.47 60.09 60.09 0 0 0 23.26-11.12 51.08 51.08 0 0 0 14.74-19.22q5.21-11.56 5.21-27.75a66.12 66.12 0 0 0-4.34-24.71 44.79 44.79 0 0 0-13.58-18.35q-9.25-7.51-24-11.27t-35.84-3.76a245.78 245.78 0 0 0-30.49 1.73 206.28 206.28 0 0 1-25.87 1.74q-8.39 0-12-4.19t-3.61-15.47V21.68q0-11.57 4.47-16.62T675.59 0h177.15a8.08 8.08 0 0 1 4.91 1.73 13 13 0 0 1 3.9 5.5 37.43 37.43 0 0 1 2.32 10 134 134 0 0 1 .72 14.88q0 17.34-3 25.15t-8.81 7.8h-133v80.06q10.11-1.16 20.09-1.45t20.95-.29q30.35 0 53.9 7.08t39.6 20.81a88.47 88.47 0 0 1 24.42 34.11q8.39 20.34 8.39 47.22z" fill="#b11b1b"/></svg>